Coordinates
version=1
nRows=17
nColumns=24
inDegrees=yes

Units are S.I. units (second, meters, Newtons, ...)
Angles are in degrees.

endheader
time	pelvis_tilt	pelvis_list	pelvis_rotation	pelvis_tx	pelvis_ty	pelvis_tz	hip_flexion_r	hip_adduction_r	hip_rotation_r	knee_angle_r	ankle_angle_r	subtalar_angle_r	mtp_angle_r	hip_flexion_l	hip_adduction_l	hip_rotation_l	knee_angle_l	ankle_angle_l	subtalar_angle_l	mtp_angle_l	lumbar_extension	lumbar_bending	lumbar_rotation
      1.28300000	     -3.67499514	      2.36877784	     -6.63270063	      0.29790736	      1.06587631	      0.33046884	     21.52916296	     -5.28357433	     -4.27015679	    -70.41539092	      0.94214597	     -9.17914057	      4.66372939	     14.88103794	      3.78899382	     -1.97977189	    -18.57642619	     10.36098159	      1.40369464	      0.12620422	    -14.86322167	     -5.05447529	      0.49462831
      1.28716667	     -3.63701852	      2.26684027	     -6.52532307	      0.30301740	      1.06700502	      0.33024836	     21.92860915	     -5.16119303	     -4.45579450	    -69.92200698	      1.24596200	     -8.88700354	      4.64686759	     14.30870774	      3.75425167	     -1.85739304	    -18.11556323	     10.35460121	      1.44450856	      0.13369579	    -14.93043698	     -4.89063180	      0.25962666
      1.29133333	     -3.58637875	      2.14919597	     -6.40843942	      0.30811986	      1.06812352	      0.33000640	     22.29551669	     -5.02694049	     -4.65459559	    -69.37014748	      1.54981572	     -8.53263495	      4.64950668	     13.72722897	      3.70257307	     -1.73731950	    -17.66841105	     10.39814064	      1.50929728	      0.14068258	    -15.01306006	     -4.70616786	      0.07981647
      1.29550000	     -3.53329011	      2.03604769	     -6.28108647	      0.31320879	      1.06920468	      0.32976511	     22.64743546	     -4.89766353	     -4.85976650	    -68.77005352	      1.86977433	     -8.13562601	      4.66262843	     13.14206559	      3.65495560	     -1.60607681	    -17.21135634	     10.41419054	      1.56951048	      0.14799963	    -15.10062317	     -4.52393575	     -0.14149584
      1.29966667	     -3.50562947	      1.91780558	     -6.14438610	      0.31829034	      1.07019590	      0.32952456	     23.01247059	     -4.75828423	     -5.07047154	    -68.12060403	      2.18804873	     -7.71198037	      4.68499391	     12.59258425	      3.59609686	     -1.47155723	    -16.77099139	     10.43114707	      1.63402235	      0.15547417	    -15.15804375	     -4.33668385	     -0.34716069
      1.30383333	     -3.47444309	      1.82132505	     -6.00523845	      0.32338570	      1.07113042	      0.32927293	     23.36833411	     -4.64756883	     -5.28119070	    -67.43830849	      2.51611292	     -7.26055602	      4.71677038	     12.03241995	      3.56058101	     -1.33374817	    -16.30939349	     10.45124062	      1.68704384	      0.16334715	    -15.21177288	     -4.15976530	     -0.57199973
      1.30800000	     -3.42322013	      1.72245663	     -5.86166955	      0.32845348	      1.07206054	      0.32903286	     23.68866534	     -4.53446559	     -5.49509305	    -66.70413381	      2.84050848	     -6.79698608	      4.75712397	     11.45244008	      3.52153790	     -1.18970960	    -15.84633291	     10.46317234	      1.73914284	      0.17148455	    -15.29513317	     -3.98690461	     -0.79590916
      1.31216667	     -3.39074866	      1.63111979	     -5.71316188	      0.33352211	      1.07289927	      0.32879180	     24.01960102	     -4.42623627	     -5.70588982	    -65.93236000	      3.16617472	     -6.32079210	      4.80723572	     10.89699330	      3.48638728	     -1.03955890	    -15.38951601	     10.47444847	      1.78267075	      0.18046463	    -15.35444170	     -3.82192022	     -1.02973789
      1.31633333	     -3.36444761	      1.51361923	     -5.55434718	      0.33858930	      1.07371455	      0.32855913	     24.33080589	     -4.28518448	     -5.92796657	    -65.09296562	      3.46279460	     -5.87058553	      4.84764575	     10.35679341	      3.41578421	     -0.90477783	    -14.95435153	     10.47338641	      1.85987138	      0.18640580	    -15.40537797	     -3.63988876	     -1.18953838
      1.32050000	     -3.34539744	      1.45736430	     -5.40752572	      0.34366167	      1.07439002	      0.32832642	     24.66621406	     -4.21399661	     -6.12581087	    -64.26174164	      3.80111029	     -5.36648300	      4.91250569	      9.81361607	      3.41378121	     -0.74071698	    -14.48378174	     10.51078877	      1.87964567	      0.19655226	    -15.44109051	     -3.49829823	     -1.47204645
      1.32466667	     -3.31095132	      1.38100611	     -5.25347217	      0.34871914	      1.07507691	      0.32809828	     24.96067292	     -4.11789887	     -6.32851268	    -63.36675936	      4.10450185	     -4.90957429	      4.98255795	      9.25902376	      3.38648202	     -0.58413232	    -14.02413915	     10.51934184	      1.91105340	      0.20639138	    -15.49977116	     -3.34321805	     -1.69974210
      1.32883333	     -3.31164846	      1.31067869	     -5.09815470	      0.35378355	      1.07563678	      0.32788923	     25.28343343	     -4.02153802	     -6.52514646	    -62.43679973	      4.40167809	     -4.45506898	      5.05301543	      8.74988661	      3.35760963	     -0.43315251	    -13.58088931	     10.54243953	      1.94968663	      0.21619761	    -15.50904852	     -3.19925475	     -1.91286102
      1.33300000	     -3.30819965	      1.25504110	     -4.94798779	      0.35883454	      1.07614574	      0.32769459	     25.59494288	     -3.93706052	     -6.70648867	    -61.47497584	      4.69529892	     -4.03257225	      5.14590546	      8.23261626	      3.34273667	     -0.27282196	    -13.12192359	     10.52787770	      1.97199237	      0.22776847	    -15.53525494	     -3.06995700	     -2.15745994
      1.33716667	     -3.32684272	      1.18173257	     -4.79621870	      0.36390017	      1.07656549	      0.32751240	     25.90945375	     -3.82862772	     -6.89165050	    -60.46081880	      4.94934162	     -3.64864297	      5.19575945	      7.75797987	      3.29836132	     -0.16197092	    -12.71172758	     10.56629626	      2.04547804	      0.23456872	    -15.51564844	     -2.93005840	     -2.27920607
      1.34133333	     -3.33608685	      1.13770529	     -4.65279805	      0.36895367	      1.07691945	      0.32734382	     26.21418468	     -3.74981206	     -7.05471766	    -59.43115924	      5.22868805	     -3.24604144	      5.25247765	      7.26781760	      3.28556382	     -0.03510054	    -12.28307486	     10.60197207	      2.10239887	      0.24193181	    -15.51372434	     -2.81810782	     -2.46756267
      1.34550000	     -3.33557514	      1.11932706	     -4.51418893	      0.37399687	      1.07723760	      0.32719023	     26.50444946	     -3.69645743	     -7.19957787	    -58.37785194	      5.50103315	     -2.88273826	      5.36200825	      6.75326396	      3.30373357	      0.14814866	    -11.81743262	     10.61295831	      2.07574986	      0.25523460	    -15.53374851	     -2.72386866	     -2.77224449
      1.34966667	     -3.37946201	      1.07894468	     -4.37987753	      0.37906056	      1.07742731	      0.32706750	     26.81946243	     -3.60636858	     -7.33899442	    -57.26904867	      5.72735033	     -2.57863087	      5.41138884	      6.31204310	      3.28305582	      0.24486172	    -11.41528948	     10.65607004	      2.14481847	      0.26195603	    -15.47821739	     -2.62193156	     -2.87395188
